<?xml version="1.0" encoding="UTF-8" standalone="no"?>
<svg
   xmlns:dc="http://purl.org/dc/elements/1.1/"
   xmlns:cc="http://creativecommons.org/ns#"
   xmlns:rdf="http://www.w3.org/1999/02/22-rdf-syntax-ns#"
   xmlns:svg="http://www.w3.org/2000/svg"
   xmlns="http://www.w3.org/2000/svg"
   xmlns:sodipodi="http://sodipodi.sourceforge.net/DTD/sodipodi-0.dtd"
   xmlns:inkscape="http://www.inkscape.org/namespaces/inkscape"
   width="145.68185mm"
   height="113.26024mm"
   viewBox="0 0 145.68185 113.26024"
   version="1.1"
   id="svg847"
   inkscape:version="1.0.2 (e86c870879, 2021-01-15)"
   sodipodi:docname="wilmaink.svg">
  <defs
     id="defs841" />
  <sodipodi:namedview
     id="base"
     pagecolor="#ffffff"
     bordercolor="#666666"
     borderopacity="1.0"
     inkscape:pageopacity="0.0"
     inkscape:pageshadow="2"
     inkscape:zoom="1.4"
     inkscape:cx="390.21396"
     inkscape:cy="185.80771"
     inkscape:document-units="mm"
     inkscape:current-layer="layer1"
     inkscape:document-rotation="0"
     showgrid="false"
     fit-margin-top="0"
     fit-margin-left="0"
     fit-margin-right="0"
     fit-margin-bottom="0"
     inkscape:window-width="3768"
     inkscape:window-height="2096"
     inkscape:window-x="72"
     inkscape:window-y="27"
     inkscape:window-maximized="1" />
  <metadata
     id="metadata844">
    <rdf:RDF>
      <cc:Work
         rdf:about="">
        <dc:format>image/svg+xml</dc:format>
        <dc:type
           rdf:resource="http://purl.org/dc/dcmitype/StillImage" />
        <dc:title></dc:title>
      </cc:Work>
    </rdf:RDF>
  </metadata>
  <g
     inkscape:label="Layer 1"
     inkscape:groupmode="layer"
     id="layer1"
     transform="translate(-9.7206929,-93.951586)">
    <path
       style="fill:#006199;fill-opacity:1;stroke-width:0.148705"
       d="m 17.035368,207.17233 c -1.363449,-0.14151 -2.568783,-0.39489 -3.197166,-0.67207 -2.52724,-1.11478 -2.013212,-3.10775 1.241827,-4.81475 0.623839,-0.32715 1.134974,-0.67926 1.135856,-0.78246 0.0018,-0.20811 -0.133208,-0.19593 -3.028318,0.27323 -2.214572,0.35888 -2.490437,0.35723 -2.967064,-0.0177 -0.8086651,-0.6361 -0.6026071,-1.9555 0.376806,-2.4127 1.456752,-0.68003 7.479933,-0.9319 8.778746,-0.36709 0.902979,0.39266 1.302596,0.88922 1.302596,1.61859 0,0.56579 -0.07995,0.70734 -0.780703,1.38228 -0.506296,0.48765 -1.434056,1.09633 -2.639522,1.73174 -1.579858,0.83275 -1.858817,1.03262 -1.858817,1.33181 0,0.61247 0.910623,0.78213 4.238104,0.7896 3.296856,0.007 4.892873,-0.12517 11.384196,-0.94564 7.924361,-1.0016 9.986174,-0.96661 13.167519,0.22344 0.967152,0.36179 2.112177,0.70278 2.544501,0.75776 0.895858,0.11394 1.178888,0.27857 1.051154,0.61143 -0.134788,0.35126 -1.834447,0.17064 -3.982741,-0.42324 -1.670439,-0.46179 -1.931741,-0.4931 -4.089398,-0.49003 -2.449422,0.003 -3.648846,0.14084 -9.665851,1.10692 -2.003806,0.32173 -4.446292,0.68957 -5.427748,0.81744 -1.757256,0.22893 -6.421999,0.40203 -7.583977,0.28142 z m 31.817735,-1.55458 c -0.05345,-0.0864 -0.05575,-0.32203 -0.0051,-0.52356 0.180166,-0.71783 9.029888,-9.43807 10.375245,-10.22345 0.856313,-0.49989 1.088266,-1.21251 0.564987,-1.73579 -0.389609,-0.38961 -1.0677,-0.38157 -1.42683,0.0169 -0.707643,0.78521 -3.777856,3.5685 -3.777856,3.4248 0,-0.24127 2.391554,-3.36508 4.570355,-5.96972 2.978365,-3.56047 5.570106,-5.91577 7.549136,-6.86043 1.149966,-0.54893 1.602045,-0.54945 1.991632,-0.002 1.05479,1.48132 0.744113,3.95127 -1.097039,8.72158 -1.47213,3.81421 -1.959011,4.85204 -2.791482,5.95028 -1.398352,1.84479 -2.591375,2.40476 -7.596246,3.56545 -2.546901,0.59066 -4.552325,1.4939 -6.418347,2.89082 -1.20224,0.90001 -1.719842,1.09905 -1.938395,0.74543 z m 21.422304,-22.89471 c -0.407021,-0.0721 -0.825254,-0.2477 -0.929411,-0.39015 -0.637647,-0.87203 0.522564,-3.65531 2.935701,-7.04259 1.189521,-1.66972 1.888902,-2.50959 5.938317,-7.13126 13.731842,-15.67237 25.050276,-27.20903 50.493126,-51.46666 24.42893,-23.290948 23.81528,-22.731848 24.95956,-22.740678 0.90974,-0.007 1.7374,0.89157 1.72979,1.87802 -0.002,0.23301 -0.12938,0.70139 -0.28352,1.04086 -0.33343,0.73431 -9.03044,11.632538 -23.12277,28.975168 -21.8256,26.85948 -38.244866,46.13757 -42.556831,49.96653 -3.508674,3.11566 -6.696426,4.84582 -11.06534,6.00577 -2.961774,0.78635 -6.522801,1.18428 -8.098622,0.90499 z"
       id="path1424" />
    <text
       xml:space="preserve"
       style="font-style:normal;font-weight:normal;font-size:40.3046px;line-height:1.25;font-family:sans-serif;fill:#003b5e;fill-opacity:1;stroke:none;stroke-width:1.00762"
       x="13.203241"
       y="171.8954"
       id="text1444"><tspan
         sodipodi:role="line"
         id="tspan1442"
         x="13.203241"
         y="171.8954"
         style="font-style:normal;font-variant:normal;font-weight:bold;font-stretch:normal;font-family:'Noto Sans Mono';-inkscape-font-specification:'Noto Sans Mono';fill:#003b5e;fill-opacity:1;stroke-width:1.00762">Wilma</tspan></text>
    <text
       xml:space="preserve"
       style="font-style:normal;font-weight:normal;font-size:39.6214px;line-height:1.25;font-family:sans-serif;fill:#003b5e;fill-opacity:1;stroke:none;stroke-width:0.990537"
       x="80.805969"
       y="206.38043"
       id="text1448"><tspan
         sodipodi:role="line"
         id="tspan1446"
         x="80.805969"
         y="206.38043"
         style="font-style:normal;font-variant:normal;font-weight:bold;font-stretch:normal;font-family:'Noto Sans Mono';-inkscape-font-specification:'Noto Sans Mono';fill:#003b5e;fill-opacity:1;stroke-width:0.990537">Ink</tspan></text>
  </g>
</svg>
